# xmcd
#
# Track frame offsets: 
#        150
#        18006
#        34082
#        50736
#        65160
#        83594
#        97651
#        113211
#        132953
#        147698
#        165499
#        181965
#        197544
#
# Disc length: 2795 seconds
#
# Revision: 0
# Processed by: cddbd v1.5.1PL2 Copyright (c) Steve Scherf et al.
# Submitted via: ExactAudioCopy v0.95b4
#
DISCID=aa0ae90d
DTITLE=Tracey Miller - I'll Get Along Somehow
DYEAR=2005
DGENRE=Country
TTITLE0=Same Old Thing
TTITLE1=Sleep on It
TTITLE2=Garade 'A' Melbourne Blues
TTITLE3=You Know I hate To Loose
TTITLE4=Creek
TTITLE5=Small Piece O f Your Heart
TTITLE6=Well read Woman
TTITLE7=Everything To me
TTITLE8=The Waiting Game
TTITLE9=Home Fire Burning
TTITLE10=Make a Change
TTITLE11=Call Me
TTITLE12=I'll Get Along Somehow
EXTD=
EXTT0=
EXTT1=
EXTT2=
EXTT3=
EXTT4=
EXTT5=
EXTT6=
EXTT7=
EXTT8=
EXTT9=
EXTT10=
EXTT11=
EXTT12=
PLAYORDER=
